<?xml version="1.0" standalone="no"?><!DOCTYPE svg PUBLIC "-//W3C//DTD SVG 1.1//EN" "http://www.w3.org/Graphics/SVG/1.1/DTD/svg11.dtd"><svg t="1601273432420" class="icon" viewBox="0 0 1024 1024" version="1.1" xmlns="http://www.w3.org/2000/svg" p-id="2974" width="48" height="48" xmlns:xlink="http://www.w3.org/1999/xlink"><defs><style type="text/css"></style></defs><path d="M784.179 515.171l-303.385-333.018c-6.282-6.78999999-10.135-15.906-10.13500001-25.922s3.854-19.132 10.15900001-25.946c5.632-6.771 14.092-11.067 23.554-11.067 9.463 0 17.922 4.295 23.539 11.043l348.94 383.083-348.898 383.033c-5.655 6.797-14.114 11.09299999-23.578 11.093s-17.923-4.296-23.539-11.043c-6.322-6.839-10.176-15.954-10.176-25.971 0-10.01499999 3.854-19.132 10.159-25.946l303.362-329.341z m-335.452-1.827l-303.38500001-333.078c-6.26499999-6.785-10.107-15.889-10.10699999-25.89s3.843-19.10499999 10.132-25.916c5.632-6.792 14.105-11.103 23.586-11.103 9.481 0 17.953 4.311 23.568 11.078l348.94 384.91-348.898 383.033c-5.654 6.81799999-14.128 11.13-23.607 11.13s-17.953-4.31-23.568-11.078c-6.322-6.84-10.177-15.955-10.177-25.972 0-10.01499999 3.854-19.133 10.159-25.946l303.362-331.166z" fill="#606266" p-id="2975"></path></svg>