<?xml version="1.0" standalone="no"?><!DOCTYPE svg PUBLIC "-//W3C//DTD SVG 1.1//EN" "http://www.w3.org/Graphics/SVG/1.1/DTD/svg11.dtd"><svg t="1600599422421" class="icon" viewBox="0 0 1243 1024" version="1.1" xmlns="http://www.w3.org/2000/svg" p-id="8047" xmlns:xlink="http://www.w3.org/1999/xlink" width="242.7734375" height="200"><defs><style type="text/css"></style></defs><path d="M245.028571 287.085714h828.342858v-71.314285c0-20.114286-7.314286-38.4-21.942858-53.028572-14.628571-14.628571-32.914286-21.942857-53.028571-21.942857H557.714286V74.971429c0-40.228571-32.914286-74.971429-74.971429-74.971429h-365.714286c-40.228571 0-73.142857 32.914286-73.142857 74.971429v874.057142l128-586.971428c1.828571-42.057143 32.914286-74.971429 73.142857-74.971429z m0 0" fill="#1296db" p-id="8048"></path><path d="M1148.342857 341.942857H301.714286c-40.228571 0-74.971429 32.914286-74.971429 74.971429l-128 605.257143h917.942857c20.114286 0 38.4-7.314286 53.028572-21.942858 14.628571-14.628571 21.942857-32.914286 21.942857-53.028571l128-533.942857c0-38.4-31.085714-71.314286-71.314286-71.314286zM696.685714 886.857143h-71.314285V621.714286h-71.314286l107.885714-142.628572L768 621.714286h-71.314286v265.142857z m0 0" fill="#1296db" p-id="8049"></path></svg>