<?xml version="1.0" standalone="no"?><!DOCTYPE svg PUBLIC "-//W3C//DTD SVG 1.1//EN" "http://www.w3.org/Graphics/SVG/1.1/DTD/svg11.dtd"><svg t="1623048097671" class="icon" viewBox="0 0 1024 1024" version="1.1" xmlns="http://www.w3.org/2000/svg" p-id="4432" xmlns:xlink="http://www.w3.org/1999/xlink" width="48" height="48"><defs><style type="text/css"></style></defs><path d="M132.740741 929.185185c-18.962963 0-37.925926-18.962963-37.925926-37.925926V132.740741c0-18.962963 18.962963-37.925926 37.925926-37.925926s37.925926 12.641975 37.925926 37.925926v758.518518c0 25.283951-18.962963 37.925926-37.925926 37.925926zM891.259259 929.185185c-18.962963 0-37.925926-18.962963-37.925926-37.925926V132.740741c0-18.962963 18.962963-37.925926 37.925926-37.925926s37.925926 18.962963 37.925926 37.925926v758.518518c0 25.283951-18.962963 37.925926-37.925926 37.925926z" p-id="4433" fill="#cdcdcd"></path><path d="M132.740741 170.666667c-18.962963 0-37.925926-18.962963-37.925926-37.925926C94.814815 6.320988 467.753086 0 512 0c44.246914 0 417.185185 6.320988 417.185185 132.740741 0 18.962963-18.962963 37.925926-37.925926 37.925926s-37.925926-18.962963-37.925926-37.925926c-12.641975-12.641975-132.740741-56.888889-341.333333-56.888889s-328.691358 37.925926-341.333333 63.209876c0 18.962963-18.962963 31.604938-37.925926 31.604939z" p-id="4434" fill="#cdcdcd"></path><path d="M512 259.160494c-44.246914 0-417.185185 0-417.185185-126.419753 0-18.962963 18.962963-37.925926 37.925926-37.925926s37.925926 12.641975 37.925926 37.925926c12.641975 12.641975 132.740741 56.888889 341.333333 56.888889s328.691358-37.925926 341.333333-63.209877c0-18.962963 18.962963-37.925926 37.925926-37.925926s37.925926 18.962963 37.925926 37.925926C929.185185 259.160494 556.246914 259.160494 512 259.160494zM512 512c-44.246914 0-417.185185-6.320988-417.185185-132.740741 0-18.962963 18.962963-37.925926 37.925926-37.925926s37.925926 18.962963 37.925926 37.925926c12.641975 12.641975 132.740741 56.888889 341.333333 56.888889s328.691358-37.925926 341.333333-63.209876c0-18.962963 18.962963-37.925926 37.925926-37.925926s37.925926 18.962963 37.925926 37.925926C929.185185 505.679012 556.246914 512 512 512zM512 752.197531c-44.246914 0-417.185185-6.320988-417.185185-132.740741 0-18.962963 18.962963-37.925926 37.925926-37.925926s37.925926 18.962963 37.925926 37.925926c12.641975 12.641975 132.740741 56.888889 341.333333 56.888889 208.592593 0 328.691358-37.925926 341.333333-63.209877 0-18.962963 18.962963-37.925926 37.925926-37.925925s37.925926 18.962963 37.925926 37.925925c0 132.740741-372.938272 139.061728-417.185185 139.061729zM512 1024c-44.246914 0-417.185185-6.320988-417.185185-132.740741 0-18.962963 18.962963-37.925926 37.925926-37.925926s37.925926 18.962963 37.925926 37.925926c12.641975 12.641975 132.740741 56.888889 341.333333 56.888889 208.592593 0 328.691358-37.925926 341.333333-63.209876 0-18.962963 18.962963-37.925926 37.925926-37.925926s37.925926 18.962963 37.925926 37.925926c0 132.740741-372.938272 139.061728-417.185185 139.061728z" p-id="4435" fill="#cdcdcd"></path></svg>