<?xml version="1.0" standalone="no"?><!DOCTYPE svg PUBLIC "-//W3C//DTD SVG 1.1//EN" "http://www.w3.org/Graphics/SVG/1.1/DTD/svg11.dtd"><svg t="1608780973814" class="icon" viewBox="0 0 1024 1024" version="1.1" xmlns="http://www.w3.org/2000/svg" p-id="3506" xmlns:xlink="http://www.w3.org/1999/xlink" width="16" height="16"><defs><style type="text/css"></style></defs><path d="M799.9935 1024l-575.987 0c-70.654405 0-127.997111-57.342706-127.997111-127.997111L96.009389 128.148219c0-70.654405 57.342706-127.997111 127.997111-127.997111l383.991334 0c42.815034-0.639986 59.902648 0.959978 63.998556 0.959978L671.996389 0.151108l255.994222 255.994222c0 46.97494 0 53.950782 0 63.998556L927.990611 896.002889C927.990611 966.657294 870.647906 1024 799.9935 1024zM671.996389 64.149663c0 76.158281 0 127.997111 0 127.997111 0 35.327203 28.607354 63.998556 63.998556 63.998556l127.997111 0L671.996389 64.149663zM863.992056 320.079887c-74.494319 0-127.997111 0-127.997111 0-70.654405 0-127.997111-57.278707-127.997111-127.997111 0 0-1.471967-51.326842-0.89598-127.997111L224.0065 64.085665c-35.327203 0-63.998556 28.671353-63.998556 63.998556L160.007944 896.002889c0 35.391201 28.671353 63.998556 63.998556 63.998556l575.987 0c35.391201 0 63.998556-28.607354 63.998556-63.998556L863.992056 320.079887z" p-id="3507" fill="#515151"></path></svg>