<?xml version="1.0" standalone="no"?><!DOCTYPE svg PUBLIC "-//W3C//DTD SVG 1.1//EN" "http://www.w3.org/Graphics/SVG/1.1/DTD/svg11.dtd"><svg class="icon" width="16px" height="16.00px" viewBox="0 0 1024 1024" version="1.1" xmlns="http://www.w3.org/2000/svg"><path d="M174.08 225.28c-12.288 0-20.48-8.192-20.48-20.48s8.192-20.48 20.48-20.48h675.84c12.288 0 20.48 8.192 20.48 20.48s-8.192 20.48-20.48 20.48h-675.84z m133.12 143.36c-12.288 0-20.48-8.192-20.48-20.48s8.192-20.48 20.48-20.48h409.6c12.288 0 20.48 8.192 20.48 20.48s-8.192 20.48-20.48 20.48h-409.6z m-133.12 143.36c-12.288 0-20.48-8.192-20.48-20.48s8.192-20.48 20.48-20.48h675.84c12.288 0 20.48 8.192 20.48 20.48s-8.192 20.48-20.48 20.48h-675.84z m133.12 163.84c-12.288 0-20.48-8.192-20.48-20.48s8.192-20.48 20.48-20.48h409.6c12.288 0 20.48 8.192 20.48 20.48s-8.192 20.48-20.48 20.48h-409.6z m-133.12 163.84c-12.288 0-20.48-8.192-20.48-20.48s8.192-20.48 20.48-20.48h675.84c12.288 0 20.48 8.192 20.48 20.48s-8.192 20.48-20.48 20.48h-675.84z" /></svg>